<mxfile host="drawio-plugin" modified="2023-03-01T17:42:43.875Z" agent="5.0 (Windows NT 6.2; Win64; x64) AppleWebKit/537.36 (KHTML, like Gecko) Chrome/104.0.5112.102 Safari/537.36" etag="dnC4biQqmuNEG42mZdVi" version="20.5.3" type="embed"><diagram id="C5RBs43oDa-KdzZeNtuy" name="Page-1"><mxGraphModel dx="574" dy="365" grid="1" gridSize="10" guides="1" tooltips="1" connect="1" arrows="1" fold="1" page="1" pageScale="1" pageWidth="1169" pageHeight="827" math="0" shadow="1"><root><mxCell id="WIyWlLk6GJQsqaUBKTNV-0"/><mxCell id="WIyWlLk6GJQsqaUBKTNV-1" parent="WIyWlLk6GJQsqaUBKTNV-0"/><mxCell id="YLRPy9Vwm_R-fYZFnZfL-16" value="&lt;div align=&quot;left&quot;&gt;Main&lt;/div&gt;&lt;div align=&quot;left&quot;&gt;&lt;br&gt;&lt;/div&gt;&lt;div align=&quot;left&quot;&gt;&lt;br&gt;&lt;/div&gt;&lt;div align=&quot;left&quot;&gt;&lt;br&gt;&lt;/div&gt;&lt;div align=&quot;left&quot;&gt;&lt;br&gt;&lt;/div&gt;&lt;div align=&quot;left&quot;&gt;&lt;br&gt;&lt;/div&gt;&lt;div align=&quot;left&quot;&gt;&lt;br&gt;&lt;/div&gt;&lt;div&gt;&lt;br&gt;&lt;/div&gt;&lt;div&gt;&lt;br&gt;&lt;/div&gt;&lt;div&gt;&lt;br&gt;&lt;/div&gt;&lt;div&gt;&lt;br&gt;&lt;/div&gt;&lt;div&gt;&lt;br&gt;&lt;/div&gt;&lt;div&gt;&lt;br&gt;&lt;/div&gt;&lt;div&gt;&lt;br&gt;&lt;/div&gt;&lt;div&gt;&lt;br&gt;&lt;/div&gt;&lt;div&gt;&lt;br&gt;&lt;/div&gt;" style="shape=folder;fontStyle=1;spacingTop=10;tabWidth=40;tabHeight=20;tabPosition=left;html=1;align=left;" parent="WIyWlLk6GJQsqaUBKTNV-1" vertex="1"><mxGeometry x="57" y="17" width="200" height="230" as="geometry"/></mxCell><mxCell id="YLRPy9Vwm_R-fYZFnZfL-15" value="&lt;div align=&quot;left&quot;&gt;Butik&lt;/div&gt;&lt;div align=&quot;left&quot;&gt;&lt;br&gt;&lt;/div&gt;&lt;div align=&quot;left&quot;&gt;&lt;br&gt;&lt;/div&gt;&lt;div align=&quot;left&quot;&gt;&lt;br&gt;&lt;/div&gt;&lt;div align=&quot;left&quot;&gt;&lt;br&gt;&lt;/div&gt;&lt;div align=&quot;left&quot;&gt;&lt;br&gt;&lt;/div&gt;&lt;div align=&quot;left&quot;&gt;&lt;br&gt;&lt;/div&gt;&lt;div align=&quot;left&quot;&gt;&lt;br&gt;&lt;/div&gt;&lt;div align=&quot;left&quot;&gt;&lt;br&gt;&lt;/div&gt;&lt;div align=&quot;left&quot;&gt;&lt;br&gt;&lt;/div&gt;&lt;div align=&quot;left&quot;&gt;&lt;br&gt;&lt;/div&gt;&lt;div align=&quot;left&quot;&gt;&lt;br&gt;&lt;/div&gt;&lt;div align=&quot;left&quot;&gt;&lt;br&gt;&lt;/div&gt;&lt;div align=&quot;left&quot;&gt;&lt;br&gt;&lt;/div&gt;&lt;div align=&quot;left&quot;&gt;&lt;br&gt;&lt;/div&gt;&lt;div align=&quot;left&quot;&gt;&lt;br&gt;&lt;/div&gt;&lt;div align=&quot;left&quot;&gt;&lt;br&gt;&lt;/div&gt;&lt;div align=&quot;left&quot;&gt;&lt;br&gt;&lt;/div&gt;&lt;div align=&quot;left&quot;&gt;&lt;br&gt;&lt;/div&gt;&lt;div align=&quot;left&quot;&gt;&lt;br&gt;&lt;/div&gt;&lt;div align=&quot;left&quot;&gt;&lt;br&gt;&lt;/div&gt;&lt;div align=&quot;left&quot;&gt;&lt;br&gt;&lt;/div&gt;&lt;div align=&quot;left&quot;&gt;&lt;br&gt;&lt;/div&gt;&lt;div align=&quot;left&quot;&gt;&lt;br&gt;&lt;/div&gt;&lt;div align=&quot;left&quot;&gt;&lt;br&gt;&lt;/div&gt;" style="shape=folder;fontStyle=1;spacingTop=10;tabWidth=50;tabHeight=20;tabPosition=left;html=1;align=left;" parent="WIyWlLk6GJQsqaUBKTNV-1" vertex="1"><mxGeometry x="20" y="440" width="1107" height="360" as="geometry"/></mxCell><mxCell id="Uis7Gt27PWJQKcqrfa5W-74" value="&lt;div align=&quot;left&quot;&gt;Simulator&lt;/div&gt;&lt;div align=&quot;left&quot;&gt;&lt;br&gt;&lt;/div&gt;&lt;div align=&quot;left&quot;&gt;&lt;br&gt;&lt;/div&gt;&lt;div align=&quot;left&quot;&gt;&lt;br&gt;&lt;/div&gt;&lt;div align=&quot;left&quot;&gt;&lt;br&gt;&lt;/div&gt;&lt;div align=&quot;left&quot;&gt;&lt;br&gt;&lt;/div&gt;&lt;div align=&quot;left&quot;&gt;&lt;br&gt;&lt;/div&gt;&lt;div align=&quot;left&quot;&gt;&lt;br&gt;&lt;/div&gt;&lt;div align=&quot;left&quot;&gt;&lt;br&gt;&lt;/div&gt;&lt;div align=&quot;left&quot;&gt;&lt;br&gt;&lt;/div&gt;&lt;div align=&quot;left&quot;&gt;&lt;br&gt;&lt;/div&gt;&lt;div align=&quot;left&quot;&gt;&lt;br&gt;&lt;/div&gt;&lt;div align=&quot;left&quot;&gt;&lt;br&gt;&lt;/div&gt;&lt;div align=&quot;left&quot;&gt;&lt;br&gt;&lt;/div&gt;&lt;div align=&quot;left&quot;&gt;&lt;br&gt;&lt;/div&gt;&lt;div align=&quot;left&quot;&gt;&lt;br&gt;&lt;/div&gt;&lt;div align=&quot;left&quot;&gt;&lt;br&gt;&lt;/div&gt;&lt;div align=&quot;left&quot;&gt;&lt;br&gt;&lt;/div&gt;&lt;div align=&quot;left&quot;&gt;&lt;br&gt;&lt;/div&gt;&lt;div align=&quot;left&quot;&gt;&lt;br&gt;&lt;/div&gt;&lt;div align=&quot;left&quot;&gt;&lt;br&gt;&lt;/div&gt;&lt;div align=&quot;left&quot;&gt;&lt;br&gt;&lt;/div&gt;&lt;div align=&quot;left&quot;&gt;&lt;br&gt;&lt;/div&gt;&lt;div align=&quot;left&quot;&gt;&lt;br&gt;&lt;/div&gt;&lt;div align=&quot;left&quot;&gt;&lt;br&gt;&lt;/div&gt;&lt;div align=&quot;left&quot;&gt;&lt;br&gt;&lt;/div&gt;&lt;div align=&quot;left&quot;&gt;&lt;br&gt;&lt;/div&gt;&lt;div align=&quot;left&quot;&gt;&lt;br&gt;&lt;/div&gt;&lt;div align=&quot;left&quot;&gt;&lt;br&gt;&lt;/div&gt;&lt;div align=&quot;left&quot;&gt;&lt;br&gt;&lt;/div&gt;" style="shape=folder;fontStyle=1;spacingTop=10;tabWidth=63;tabHeight=20;tabPosition=left;html=1;align=left;" parent="WIyWlLk6GJQsqaUBKTNV-1" vertex="1"><mxGeometry x="287" y="20" width="840" height="427" as="geometry"/></mxCell><mxCell id="Uis7Gt27PWJQKcqrfa5W-1" value="Simulator" style="swimlane;fontStyle=1;align=center;verticalAlign=top;childLayout=stackLayout;horizontal=1;startSize=26;horizontalStack=0;resizeParent=1;resizeParentMax=0;resizeLast=0;collapsible=1;marginBottom=0;" parent="WIyWlLk6GJQsqaUBKTNV-1" vertex="1"><mxGeometry x="585" y="85" width="210" height="130" as="geometry"/></mxCell><mxCell id="Uis7Gt27PWJQKcqrfa5W-2" value="- state: State&#10;- events: EventQueue" style="text;strokeColor=none;fillColor=none;align=left;verticalAlign=top;spacingLeft=4;spacingRight=4;overflow=hidden;rotatable=0;points=[[0,0.5],[1,0.5]];portConstraint=eastwest;" parent="Uis7Gt27PWJQKcqrfa5W-1" vertex="1"><mxGeometry y="26" width="210" height="44" as="geometry"/></mxCell><mxCell id="Uis7Gt27PWJQKcqrfa5W-3" value="" style="line;strokeWidth=1;fillColor=none;align=left;verticalAlign=middle;spacingTop=-1;spacingLeft=3;spacingRight=3;rotatable=0;labelPosition=right;points=[];portConstraint=eastwest;strokeColor=inherit;" parent="Uis7Gt27PWJQKcqrfa5W-1" vertex="1"><mxGeometry y="70" width="210" height="8" as="geometry"/></mxCell><mxCell id="Uis7Gt27PWJQKcqrfa5W-4" value="+ Simulator(State state, &#10;    EventQueue queue)&#10;+ runLoop(): void" style="text;strokeColor=none;fillColor=none;align=left;verticalAlign=top;spacingLeft=4;spacingRight=4;overflow=hidden;rotatable=0;points=[[0,0.5],[1,0.5]];portConstraint=eastwest;" parent="Uis7Gt27PWJQKcqrfa5W-1" vertex="1"><mxGeometry y="78" width="210" height="52" as="geometry"/></mxCell><mxCell id="Uis7Gt27PWJQKcqrfa5W-5" value="EventQueue" style="swimlane;fontStyle=1;align=center;verticalAlign=top;childLayout=stackLayout;horizontal=1;startSize=30;horizontalStack=0;resizeParent=1;resizeParentMax=0;resizeLast=0;collapsible=1;marginBottom=0;" parent="WIyWlLk6GJQsqaUBKTNV-1" vertex="1"><mxGeometry x="566" y="270" width="154" height="150" as="geometry"/></mxCell><mxCell id="Uis7Gt27PWJQKcqrfa5W-6" value="- list: ArrayList&lt;Event&gt;&#10;-state: State" style="text;strokeColor=none;fillColor=none;align=left;verticalAlign=top;spacingLeft=4;spacingRight=4;overflow=hidden;rotatable=0;points=[[0,0.5],[1,0.5]];portConstraint=eastwest;" parent="Uis7Gt27PWJQKcqrfa5W-5" vertex="1"><mxGeometry y="30" width="154" height="40" as="geometry"/></mxCell><mxCell id="Uis7Gt27PWJQKcqrfa5W-7" value="" style="line;strokeWidth=1;fillColor=none;align=left;verticalAlign=middle;spacingTop=-1;spacingLeft=3;spacingRight=3;rotatable=0;labelPosition=right;points=[];portConstraint=eastwest;strokeColor=inherit;" parent="Uis7Gt27PWJQKcqrfa5W-5" vertex="1"><mxGeometry y="70" width="154" height="8" as="geometry"/></mxCell><mxCell id="Uis7Gt27PWJQKcqrfa5W-8" value="+ EventQueue(State state)&#10;+ addEvent(Event): Void&#10;+ nextEvent(): Event&#10;+ hasNext(): boolean" style="text;strokeColor=none;fillColor=none;align=left;verticalAlign=top;spacingLeft=4;spacingRight=4;overflow=hidden;rotatable=0;points=[[0,0.5],[1,0.5]];portConstraint=eastwest;" parent="Uis7Gt27PWJQKcqrfa5W-5" vertex="1"><mxGeometry y="78" width="154" height="72" as="geometry"/></mxCell><mxCell id="Uis7Gt27PWJQKcqrfa5W-9" value="&lt;&lt;Abstract&gt;&gt;&#10;Event" style="swimlane;fontStyle=1;align=center;verticalAlign=top;childLayout=stackLayout;horizontal=1;startSize=40;horizontalStack=0;resizeParent=1;resizeParentMax=0;resizeLast=0;collapsible=1;marginBottom=0;" parent="WIyWlLk6GJQsqaUBKTNV-1" vertex="1"><mxGeometry x="317" y="170" width="233" height="144" as="geometry"/></mxCell><mxCell id="Uis7Gt27PWJQKcqrfa5W-10" value="- startTime : int&#10;- eventQueue : EventQueue" style="text;strokeColor=none;fillColor=none;align=left;verticalAlign=top;spacingLeft=4;spacingRight=4;overflow=hidden;rotatable=0;points=[[0,0.5],[1,0.5]];portConstraint=eastwest;" parent="Uis7Gt27PWJQKcqrfa5W-9" vertex="1"><mxGeometry y="40" width="233" height="40" as="geometry"/></mxCell><mxCell id="Uis7Gt27PWJQKcqrfa5W-11" value="" style="line;strokeWidth=1;fillColor=none;align=left;verticalAlign=middle;spacingTop=-1;spacingLeft=3;spacingRight=3;rotatable=0;labelPosition=right;points=[];portConstraint=eastwest;strokeColor=inherit;" parent="Uis7Gt27PWJQKcqrfa5W-9" vertex="1"><mxGeometry y="80" width="233" height="8" as="geometry"/></mxCell><mxCell id="Uis7Gt27PWJQKcqrfa5W-12" value="+ getTime() : int&#10;+ Event(int time, EventQueue Queue)&#10;+ &lt;&lt;abstract&gt;&gt; execute(State) : Void" style="text;strokeColor=none;fillColor=none;align=left;verticalAlign=top;spacingLeft=4;spacingRight=4;overflow=hidden;rotatable=0;points=[[0,0.5],[1,0.5]];portConstraint=eastwest;" parent="Uis7Gt27PWJQKcqrfa5W-9" vertex="1"><mxGeometry y="88" width="233" height="56" as="geometry"/></mxCell><mxCell id="Uis7Gt27PWJQKcqrfa5W-16" value="" style="endArrow=diamondThin;endFill=0;endSize=24;html=1;rounded=0;edgeStyle=orthogonalEdgeStyle;" parent="WIyWlLk6GJQsqaUBKTNV-1" source="Uis7Gt27PWJQKcqrfa5W-9" target="Uis7Gt27PWJQKcqrfa5W-5" edge="1"><mxGeometry width="160" relative="1" as="geometry"><mxPoint x="557" y="115" as="sourcePoint"/><mxPoint x="497" y="237" as="targetPoint"/><Array as="points"><mxPoint x="530" y="345"/></Array></mxGeometry></mxCell><mxCell id="Uis7Gt27PWJQKcqrfa5W-23" value="StartSim" style="swimlane;fontStyle=1;align=center;verticalAlign=top;childLayout=stackLayout;horizontal=1;startSize=26;horizontalStack=0;resizeParent=1;resizeParentMax=0;resizeLast=0;collapsible=1;marginBottom=0;" parent="WIyWlLk6GJQsqaUBKTNV-1" vertex="1"><mxGeometry x="317" y="340" width="120" height="34" as="geometry"/></mxCell><mxCell id="Uis7Gt27PWJQKcqrfa5W-25" value="" style="line;strokeWidth=1;fillColor=none;align=left;verticalAlign=middle;spacingTop=-1;spacingLeft=3;spacingRight=3;rotatable=0;labelPosition=right;points=[];portConstraint=eastwest;strokeColor=inherit;" parent="Uis7Gt27PWJQKcqrfa5W-23" vertex="1"><mxGeometry y="26" width="120" height="8" as="geometry"/></mxCell><mxCell id="Uis7Gt27PWJQKcqrfa5W-27" value="StopSim" style="swimlane;fontStyle=1;align=center;verticalAlign=top;childLayout=stackLayout;horizontal=1;startSize=26;horizontalStack=0;resizeParent=1;resizeParentMax=0;resizeLast=0;collapsible=1;marginBottom=0;" parent="WIyWlLk6GJQsqaUBKTNV-1" vertex="1"><mxGeometry x="317" y="399" width="120" height="34" as="geometry"/></mxCell><mxCell id="Uis7Gt27PWJQKcqrfa5W-29" value="" style="line;strokeWidth=1;fillColor=none;align=left;verticalAlign=middle;spacingTop=-1;spacingLeft=3;spacingRight=3;rotatable=0;labelPosition=right;points=[];portConstraint=eastwest;strokeColor=inherit;" parent="Uis7Gt27PWJQKcqrfa5W-27" vertex="1"><mxGeometry y="26" width="120" height="8" as="geometry"/></mxCell><mxCell id="Uis7Gt27PWJQKcqrfa5W-55" value="&lt;&lt;Obseravble&gt;&gt;&#10;State" style="swimlane;fontStyle=1;align=center;verticalAlign=top;childLayout=stackLayout;horizontal=1;startSize=40;horizontalStack=0;resizeParent=1;resizeParentMax=0;resizeLast=0;collapsible=1;marginBottom=0;" parent="WIyWlLk6GJQsqaUBKTNV-1" vertex="1"><mxGeometry x="760" y="270" width="160" height="150" as="geometry"><mxRectangle x="550" y="200" width="130" height="40" as="alternateBounds"/></mxGeometry></mxCell><mxCell id="Uis7Gt27PWJQKcqrfa5W-56" value="- stopSimulation : boolean&#10;- currentTime : int" style="text;strokeColor=none;fillColor=none;align=left;verticalAlign=top;spacingLeft=4;spacingRight=4;overflow=hidden;rotatable=0;points=[[0,0.5],[1,0.5]];portConstraint=eastwest;" parent="Uis7Gt27PWJQKcqrfa5W-55" vertex="1"><mxGeometry y="40" width="160" height="44" as="geometry"/></mxCell><mxCell id="Uis7Gt27PWJQKcqrfa5W-57" value="" style="line;strokeWidth=1;fillColor=none;align=left;verticalAlign=middle;spacingTop=-1;spacingLeft=3;spacingRight=3;rotatable=0;labelPosition=right;points=[];portConstraint=eastwest;strokeColor=inherit;" parent="Uis7Gt27PWJQKcqrfa5W-55" vertex="1"><mxGeometry y="84" width="160" height="8" as="geometry"/></mxCell><mxCell id="Uis7Gt27PWJQKcqrfa5W-58" value="+ stop() : Void&#10;+ isStoped() : Boolean&#10;+ getTime() : int" style="text;strokeColor=none;fillColor=none;align=left;verticalAlign=top;spacingLeft=4;spacingRight=4;overflow=hidden;rotatable=0;points=[[0,0.5],[1,0.5]];portConstraint=eastwest;" parent="Uis7Gt27PWJQKcqrfa5W-55" vertex="1"><mxGeometry y="92" width="160" height="58" as="geometry"/></mxCell><mxCell id="Uis7Gt27PWJQKcqrfa5W-67" value="&lt;&lt;Observer, Abstract&gt;&gt;&#10;View" style="swimlane;fontStyle=1;align=center;verticalAlign=top;childLayout=stackLayout;horizontal=1;startSize=40;horizontalStack=0;resizeParent=1;resizeParentMax=0;resizeLast=0;collapsible=1;marginBottom=0;" parent="WIyWlLk6GJQsqaUBKTNV-1" vertex="1"><mxGeometry x="947" y="270" width="160" height="150" as="geometry"/></mxCell><mxCell id="Uis7Gt27PWJQKcqrfa5W-69" value="" style="line;strokeWidth=1;fillColor=none;align=left;verticalAlign=middle;spacingTop=-1;spacingLeft=3;spacingRight=3;rotatable=0;labelPosition=right;points=[];portConstraint=eastwest;strokeColor=inherit;" parent="Uis7Gt27PWJQKcqrfa5W-67" vertex="1"><mxGeometry y="40" width="160" height="8" as="geometry"/></mxCell><mxCell id="Uis7Gt27PWJQKcqrfa5W-70" value="+ update(): void" style="text;strokeColor=none;fillColor=none;align=left;verticalAlign=top;spacingLeft=4;spacingRight=4;overflow=hidden;rotatable=0;points=[[0,0.5],[1,0.5]];portConstraint=eastwest;" parent="Uis7Gt27PWJQKcqrfa5W-67" vertex="1"><mxGeometry y="48" width="160" height="102" as="geometry"/></mxCell><mxCell id="Uis7Gt27PWJQKcqrfa5W-80" value="ButikState" style="swimlane;fontStyle=1;align=center;verticalAlign=top;childLayout=stackLayout;horizontal=1;startSize=26;horizontalStack=0;resizeParent=1;resizeParentMax=0;resizeLast=0;collapsible=1;marginBottom=0;" parent="WIyWlLk6GJQsqaUBKTNV-1" vertex="1"><mxGeometry x="680" y="470" width="200" height="170" as="geometry"/></mxCell><mxCell id="Uis7Gt27PWJQKcqrfa5W-81" value="- betalQueue: KassaQueue&#10;- kunder: Kundfabrik&#10;- kassor: int&#10;+ öppen: boolean" style="text;strokeColor=none;fillColor=none;align=left;verticalAlign=top;spacingLeft=4;spacingRight=4;overflow=hidden;rotatable=0;points=[[0,0.5],[1,0.5]];portConstraint=eastwest;" parent="Uis7Gt27PWJQKcqrfa5W-80" vertex="1"><mxGeometry y="26" width="200" height="64" as="geometry"/></mxCell><mxCell id="Uis7Gt27PWJQKcqrfa5W-82" value="" style="line;strokeWidth=1;fillColor=none;align=left;verticalAlign=middle;spacingTop=-1;spacingLeft=3;spacingRight=3;rotatable=0;labelPosition=right;points=[];portConstraint=eastwest;strokeColor=inherit;" parent="Uis7Gt27PWJQKcqrfa5W-80" vertex="1"><mxGeometry y="90" width="200" height="8" as="geometry"/></mxCell><mxCell id="Uis7Gt27PWJQKcqrfa5W-83" value="+ getKassaQueue(): KassaQueue&#10;+ getKunder(): KundFabrik&#10;+ ledigKassa(): boolean&#10;+ updateStatistics(): void" style="text;strokeColor=none;fillColor=none;align=left;verticalAlign=top;spacingLeft=4;spacingRight=4;overflow=hidden;rotatable=0;points=[[0,0.5],[1,0.5]];portConstraint=eastwest;" parent="Uis7Gt27PWJQKcqrfa5W-80" vertex="1"><mxGeometry y="98" width="200" height="72" as="geometry"/></mxCell><mxCell id="Uis7Gt27PWJQKcqrfa5W-85" value="KassaQueue" style="swimlane;fontStyle=1;align=center;verticalAlign=top;childLayout=stackLayout;horizontal=1;startSize=26;horizontalStack=0;resizeParent=1;resizeParentMax=0;resizeLast=0;collapsible=1;marginBottom=0;" parent="WIyWlLk6GJQsqaUBKTNV-1" vertex="1"><mxGeometry x="737" y="670" width="160" height="120" as="geometry"/></mxCell><mxCell id="Uis7Gt27PWJQKcqrfa5W-86" value="- kunder: int[]" style="text;strokeColor=none;fillColor=none;align=left;verticalAlign=top;spacingLeft=4;spacingRight=4;overflow=hidden;rotatable=0;points=[[0,0.5],[1,0.5]];portConstraint=eastwest;" parent="Uis7Gt27PWJQKcqrfa5W-85" vertex="1"><mxGeometry y="26" width="160" height="26" as="geometry"/></mxCell><mxCell id="Uis7Gt27PWJQKcqrfa5W-87" value="" style="line;strokeWidth=1;fillColor=none;align=left;verticalAlign=middle;spacingTop=-1;spacingLeft=3;spacingRight=3;rotatable=0;labelPosition=right;points=[];portConstraint=eastwest;strokeColor=inherit;" parent="Uis7Gt27PWJQKcqrfa5W-85" vertex="1"><mxGeometry y="52" width="160" height="8" as="geometry"/></mxCell><mxCell id="Uis7Gt27PWJQKcqrfa5W-88" value="+ addKund(int): void&#10;+ nextKund():int&#10;+ hasNext(): boolean" style="text;strokeColor=none;fillColor=none;align=left;verticalAlign=top;spacingLeft=4;spacingRight=4;overflow=hidden;rotatable=0;points=[[0,0.5],[1,0.5]];portConstraint=eastwest;" parent="Uis7Gt27PWJQKcqrfa5W-85" vertex="1"><mxGeometry y="60" width="160" height="60" as="geometry"/></mxCell><mxCell id="Uis7Gt27PWJQKcqrfa5W-91" value="RunSim" style="swimlane;fontStyle=1;align=center;verticalAlign=top;childLayout=stackLayout;horizontal=1;startSize=26;horizontalStack=0;resizeParent=1;resizeParentMax=0;resizeLast=0;collapsible=1;marginBottom=0;" parent="WIyWlLk6GJQsqaUBKTNV-1" vertex="1"><mxGeometry x="77" y="50" width="160" height="70" as="geometry"/></mxCell><mxCell id="Uis7Gt27PWJQKcqrfa5W-93" value="" style="line;strokeWidth=1;fillColor=none;align=left;verticalAlign=middle;spacingTop=-1;spacingLeft=3;spacingRight=3;rotatable=0;labelPosition=right;points=[];portConstraint=eastwest;strokeColor=inherit;" parent="Uis7Gt27PWJQKcqrfa5W-91" vertex="1"><mxGeometry y="26" width="160" height="8" as="geometry"/></mxCell><mxCell id="Uis7Gt27PWJQKcqrfa5W-94" value="+ main(String[] args): Void&#10;" style="text;strokeColor=none;fillColor=none;align=left;verticalAlign=top;spacingLeft=4;spacingRight=4;overflow=hidden;rotatable=0;points=[[0,0.5],[1,0.5]];portConstraint=eastwest;" parent="Uis7Gt27PWJQKcqrfa5W-91" vertex="1"><mxGeometry y="34" width="160" height="36" as="geometry"/></mxCell><mxCell id="Uis7Gt27PWJQKcqrfa5W-97" value="ButikView" style="swimlane;fontStyle=1;align=center;verticalAlign=top;childLayout=stackLayout;horizontal=1;startSize=26;horizontalStack=0;resizeParent=1;resizeParentMax=0;resizeLast=0;collapsible=1;marginBottom=0;" parent="WIyWlLk6GJQsqaUBKTNV-1" vertex="1"><mxGeometry x="947" y="510" width="160" height="90" as="geometry"/></mxCell><mxCell id="Uis7Gt27PWJQKcqrfa5W-99" value="" style="line;strokeWidth=1;fillColor=none;align=left;verticalAlign=middle;spacingTop=-1;spacingLeft=3;spacingRight=3;rotatable=0;labelPosition=right;points=[];portConstraint=eastwest;strokeColor=inherit;" parent="Uis7Gt27PWJQKcqrfa5W-97" vertex="1"><mxGeometry y="26" width="160" height="8" as="geometry"/></mxCell><mxCell id="Uis7Gt27PWJQKcqrfa5W-100" value="+ update(): void" style="text;strokeColor=none;fillColor=none;align=left;verticalAlign=top;spacingLeft=4;spacingRight=4;overflow=hidden;rotatable=0;points=[[0,0.5],[1,0.5]];portConstraint=eastwest;" parent="Uis7Gt27PWJQKcqrfa5W-97" vertex="1"><mxGeometry y="34" width="160" height="56" as="geometry"/></mxCell><mxCell id="Uis7Gt27PWJQKcqrfa5W-101" value="Extends" style="endArrow=block;endSize=16;endFill=0;html=1;rounded=0;exitX=0.5;exitY=0;exitDx=0;exitDy=0;textOpacity=0;" parent="WIyWlLk6GJQsqaUBKTNV-1" source="Uis7Gt27PWJQKcqrfa5W-97" target="Uis7Gt27PWJQKcqrfa5W-67" edge="1"><mxGeometry width="160" relative="1" as="geometry"><mxPoint x="1437" y="540" as="sourcePoint"/><mxPoint x="1597" y="540" as="targetPoint"/></mxGeometry></mxCell><mxCell id="YLRPy9Vwm_R-fYZFnZfL-3" value="Use" style="endArrow=open;endSize=12;dashed=1;html=1;rounded=0;textOpacity=0;edgeStyle=orthogonalEdgeStyle;" parent="WIyWlLk6GJQsqaUBKTNV-1" source="Uis7Gt27PWJQKcqrfa5W-1" target="Uis7Gt27PWJQKcqrfa5W-9" edge="1"><mxGeometry width="160" relative="1" as="geometry"><mxPoint x="367" y="237" as="sourcePoint"/><mxPoint x="67" y="207" as="targetPoint"/><Array as="points"><mxPoint x="430" y="140"/></Array></mxGeometry></mxCell><mxCell id="YLRPy9Vwm_R-fYZFnZfL-4" value="Use" style="endArrow=open;endSize=12;dashed=1;html=1;rounded=0;textOpacity=0;edgeStyle=orthogonalEdgeStyle;" parent="WIyWlLk6GJQsqaUBKTNV-1" source="Uis7Gt27PWJQKcqrfa5W-91" target="Uis7Gt27PWJQKcqrfa5W-1" edge="1"><mxGeometry width="160" relative="1" as="geometry"><mxPoint x="237" y="47" as="sourcePoint"/><mxPoint x="527" y="237" as="targetPoint"/><Array as="points"><mxPoint x="692" y="60"/></Array></mxGeometry></mxCell><mxCell id="YLRPy9Vwm_R-fYZFnZfL-18" value="KundFabrik" style="swimlane;fontStyle=1;align=center;verticalAlign=top;childLayout=stackLayout;horizontal=1;startSize=26;horizontalStack=0;resizeParent=1;resizeParentMax=0;resizeLast=0;collapsible=1;marginBottom=0;" parent="WIyWlLk6GJQsqaUBKTNV-1" vertex="1"><mxGeometry x="947" y="668" width="160" height="120" as="geometry"/></mxCell><mxCell id="YLRPy9Vwm_R-fYZFnZfL-19" value="- antalKunder: int" style="text;strokeColor=none;fillColor=none;align=left;verticalAlign=top;spacingLeft=4;spacingRight=4;overflow=hidden;rotatable=0;points=[[0,0.5],[1,0.5]];portConstraint=eastwest;" parent="YLRPy9Vwm_R-fYZFnZfL-18" vertex="1"><mxGeometry y="26" width="160" height="26" as="geometry"/></mxCell><mxCell id="YLRPy9Vwm_R-fYZFnZfL-20" value="" style="line;strokeWidth=1;fillColor=none;align=left;verticalAlign=middle;spacingTop=-1;spacingLeft=3;spacingRight=3;rotatable=0;labelPosition=right;points=[];portConstraint=eastwest;strokeColor=inherit;" parent="YLRPy9Vwm_R-fYZFnZfL-18" vertex="1"><mxGeometry y="52" width="160" height="8" as="geometry"/></mxCell><mxCell id="YLRPy9Vwm_R-fYZFnZfL-21" value="+ nyKund(): int" style="text;strokeColor=none;fillColor=none;align=left;verticalAlign=top;spacingLeft=4;spacingRight=4;overflow=hidden;rotatable=0;points=[[0,0.5],[1,0.5]];portConstraint=eastwest;" parent="YLRPy9Vwm_R-fYZFnZfL-18" vertex="1"><mxGeometry y="60" width="160" height="60" as="geometry"/></mxCell><mxCell id="YLRPy9Vwm_R-fYZFnZfL-23" value="" style="endArrow=open;endFill=1;endSize=12;html=1;rounded=0;entryX=1;entryY=0.5;entryDx=0;entryDy=0;edgeStyle=elbowEdgeStyle;elbow=vertical;" parent="WIyWlLk6GJQsqaUBKTNV-1" source="Uis7Gt27PWJQKcqrfa5W-97" target="Uis7Gt27PWJQKcqrfa5W-81" edge="1"><mxGeometry width="160" relative="1" as="geometry"><mxPoint x="817" y="680" as="sourcePoint"/><mxPoint x="890" y="555" as="targetPoint"/></mxGeometry></mxCell><mxCell id="YLRPy9Vwm_R-fYZFnZfL-25" value="" style="endArrow=open;endFill=1;endSize=12;html=1;rounded=0;entryX=0;entryY=0.5;entryDx=0;entryDy=0;edgeStyle=elbowEdgeStyle;elbow=vertical;" parent="WIyWlLk6GJQsqaUBKTNV-1" source="448L8v_ShYavht3nEeR1-5" target="Uis7Gt27PWJQKcqrfa5W-81" edge="1"><mxGeometry width="160" relative="1" as="geometry"><mxPoint x="540" y="460" as="sourcePoint"/><mxPoint x="1197" y="600" as="targetPoint"/></mxGeometry></mxCell><mxCell id="YLRPy9Vwm_R-fYZFnZfL-41" value="" style="endArrow=none;html=1;rounded=0;shadow=0;edgeStyle=orthogonalEdgeStyle;" parent="WIyWlLk6GJQsqaUBKTNV-1" source="Uis7Gt27PWJQKcqrfa5W-5" edge="1"><mxGeometry width="50" height="50" relative="1" as="geometry"><mxPoint x="717" y="287" as="sourcePoint"/><mxPoint x="710" y="250" as="targetPoint"/></mxGeometry></mxCell><mxCell id="YLRPy9Vwm_R-fYZFnZfL-46" value="Optimize" style="swimlane;fontStyle=1;align=center;verticalAlign=top;childLayout=stackLayout;horizontal=1;startSize=26;horizontalStack=0;resizeParent=1;resizeParentMax=0;resizeLast=0;collapsible=1;marginBottom=0;" parent="WIyWlLk6GJQsqaUBKTNV-1" vertex="1"><mxGeometry x="78.5" y="160" width="160" height="70" as="geometry"/></mxCell><mxCell id="YLRPy9Vwm_R-fYZFnZfL-47" value="" style="line;strokeWidth=1;fillColor=none;align=left;verticalAlign=middle;spacingTop=-1;spacingLeft=3;spacingRight=3;rotatable=0;labelPosition=right;points=[];portConstraint=eastwest;strokeColor=inherit;" parent="YLRPy9Vwm_R-fYZFnZfL-46" vertex="1"><mxGeometry y="26" width="160" height="8" as="geometry"/></mxCell><mxCell id="YLRPy9Vwm_R-fYZFnZfL-48" value="+ main(String[] args): Void&#10;" style="text;strokeColor=none;fillColor=none;align=left;verticalAlign=top;spacingLeft=4;spacingRight=4;overflow=hidden;rotatable=0;points=[[0,0.5],[1,0.5]];portConstraint=eastwest;" parent="YLRPy9Vwm_R-fYZFnZfL-46" vertex="1"><mxGeometry y="34" width="160" height="36" as="geometry"/></mxCell><mxCell id="448L8v_ShYavht3nEeR1-4" value="" style="endArrow=diamondThin;endFill=0;endSize=24;html=1;rounded=0;exitX=0.5;exitY=0;exitDx=0;exitDy=0;edgeStyle=orthogonalEdgeStyle;" parent="WIyWlLk6GJQsqaUBKTNV-1" source="Uis7Gt27PWJQKcqrfa5W-55" target="Uis7Gt27PWJQKcqrfa5W-4" edge="1"><mxGeometry width="160" relative="1" as="geometry"><mxPoint x="710" y="230" as="sourcePoint"/><mxPoint x="870" y="230" as="targetPoint"/><Array as="points"><mxPoint x="817" y="260"/><mxPoint x="710" y="260"/></Array></mxGeometry></mxCell><mxCell id="448L8v_ShYavht3nEeR1-5" value="&lt;&lt;Abstract&gt;&gt;&#10;ButikEvent" style="swimlane;fontStyle=1;align=center;verticalAlign=top;childLayout=stackLayout;horizontal=1;startSize=42;horizontalStack=0;resizeParent=1;resizeParentMax=0;resizeLast=0;collapsible=1;marginBottom=0;" parent="WIyWlLk6GJQsqaUBKTNV-1" vertex="1"><mxGeometry x="370" y="520" width="230" height="90" as="geometry"/></mxCell><mxCell id="448L8v_ShYavht3nEeR1-7" value="" style="line;strokeWidth=1;fillColor=none;align=left;verticalAlign=middle;spacingTop=-1;spacingLeft=3;spacingRight=3;rotatable=0;labelPosition=right;points=[];portConstraint=eastwest;strokeColor=inherit;" parent="448L8v_ShYavht3nEeR1-5" vertex="1"><mxGeometry y="42" width="230" height="8" as="geometry"/></mxCell><mxCell id="448L8v_ShYavht3nEeR1-8" value="+ execute (State) : Void&#10;abstract + execute(ButikState) : Void" style="text;strokeColor=none;fillColor=none;align=left;verticalAlign=top;spacingLeft=4;spacingRight=4;overflow=hidden;rotatable=0;points=[[0,0.5],[1,0.5]];portConstraint=eastwest;" parent="448L8v_ShYavht3nEeR1-5" vertex="1"><mxGeometry y="50" width="230" height="40" as="geometry"/></mxCell><mxCell id="448L8v_ShYavht3nEeR1-10" value="Ankomst" style="swimlane;fontStyle=1;align=center;verticalAlign=top;childLayout=stackLayout;horizontal=1;startSize=26;horizontalStack=0;resizeParent=1;resizeParentMax=0;resizeLast=0;collapsible=1;marginBottom=0;" parent="WIyWlLk6GJQsqaUBKTNV-1" vertex="1"><mxGeometry x="47" y="510" width="223" height="120" as="geometry"/></mxCell><mxCell id="448L8v_ShYavht3nEeR1-11" value="-kundnr" style="text;strokeColor=none;fillColor=none;align=left;verticalAlign=top;spacingLeft=4;spacingRight=4;overflow=hidden;rotatable=0;points=[[0,0.5],[1,0.5]];portConstraint=eastwest;" parent="448L8v_ShYavht3nEeR1-10" vertex="1"><mxGeometry y="26" width="223" height="26" as="geometry"/></mxCell><mxCell id="448L8v_ShYavht3nEeR1-12" value="" style="line;strokeWidth=1;fillColor=none;align=left;verticalAlign=middle;spacingTop=-1;spacingLeft=3;spacingRight=3;rotatable=0;labelPosition=right;points=[];portConstraint=eastwest;strokeColor=inherit;" parent="448L8v_ShYavht3nEeR1-10" vertex="1"><mxGeometry y="52" width="223" height="8" as="geometry"/></mxCell><mxCell id="448L8v_ShYavht3nEeR1-13" value="+ Ankomst(int time, EventQueue queue,&#10;    int kundnr)&#10;+ execute(ButikState) : Void" style="text;strokeColor=none;fillColor=none;align=left;verticalAlign=top;spacingLeft=4;spacingRight=4;overflow=hidden;rotatable=0;points=[[0,0.5],[1,0.5]];portConstraint=eastwest;" parent="448L8v_ShYavht3nEeR1-10" vertex="1"><mxGeometry y="60" width="223" height="60" as="geometry"/></mxCell><mxCell id="448L8v_ShYavht3nEeR1-16" value="Plocka" style="swimlane;fontStyle=1;align=center;verticalAlign=top;childLayout=stackLayout;horizontal=1;startSize=26;horizontalStack=0;resizeParent=1;resizeParentMax=0;resizeLast=0;collapsible=1;marginBottom=0;" parent="WIyWlLk6GJQsqaUBKTNV-1" vertex="1"><mxGeometry x="47" y="655" width="223" height="120" as="geometry"/></mxCell><mxCell id="448L8v_ShYavht3nEeR1-17" value="-kundnr" style="text;strokeColor=none;fillColor=none;align=left;verticalAlign=top;spacingLeft=4;spacingRight=4;overflow=hidden;rotatable=0;points=[[0,0.5],[1,0.5]];portConstraint=eastwest;" parent="448L8v_ShYavht3nEeR1-16" vertex="1"><mxGeometry y="26" width="223" height="26" as="geometry"/></mxCell><mxCell id="448L8v_ShYavht3nEeR1-18" value="" style="line;strokeWidth=1;fillColor=none;align=left;verticalAlign=middle;spacingTop=-1;spacingLeft=3;spacingRight=3;rotatable=0;labelPosition=right;points=[];portConstraint=eastwest;strokeColor=inherit;" parent="448L8v_ShYavht3nEeR1-16" vertex="1"><mxGeometry y="52" width="223" height="8" as="geometry"/></mxCell><mxCell id="448L8v_ShYavht3nEeR1-19" value="+ Plocka(int time, EventQueue queue,&#10;    int kundnr)&#10;+ execute(ButikState) : Void" style="text;strokeColor=none;fillColor=none;align=left;verticalAlign=top;spacingLeft=4;spacingRight=4;overflow=hidden;rotatable=0;points=[[0,0.5],[1,0.5]];portConstraint=eastwest;" parent="448L8v_ShYavht3nEeR1-16" vertex="1"><mxGeometry y="60" width="223" height="60" as="geometry"/></mxCell><mxCell id="448L8v_ShYavht3nEeR1-20" value="Betalning" style="swimlane;fontStyle=1;align=center;verticalAlign=top;childLayout=stackLayout;horizontal=1;startSize=26;horizontalStack=0;resizeParent=1;resizeParentMax=0;resizeLast=0;collapsible=1;marginBottom=0;" parent="WIyWlLk6GJQsqaUBKTNV-1" vertex="1"><mxGeometry x="310" y="655" width="226" height="120" as="geometry"/></mxCell><mxCell id="448L8v_ShYavht3nEeR1-21" value="-kundnr" style="text;strokeColor=none;fillColor=none;align=left;verticalAlign=top;spacingLeft=4;spacingRight=4;overflow=hidden;rotatable=0;points=[[0,0.5],[1,0.5]];portConstraint=eastwest;" parent="448L8v_ShYavht3nEeR1-20" vertex="1"><mxGeometry y="26" width="226" height="26" as="geometry"/></mxCell><mxCell id="448L8v_ShYavht3nEeR1-22" value="" style="line;strokeWidth=1;fillColor=none;align=left;verticalAlign=middle;spacingTop=-1;spacingLeft=3;spacingRight=3;rotatable=0;labelPosition=right;points=[];portConstraint=eastwest;strokeColor=inherit;" parent="448L8v_ShYavht3nEeR1-20" vertex="1"><mxGeometry y="52" width="226" height="8" as="geometry"/></mxCell><mxCell id="448L8v_ShYavht3nEeR1-23" value="+ Betalning(int time, EventQueue queue,&#10;    int kundnr)&#10;+ execute(ButikState) : Void" style="text;strokeColor=none;fillColor=none;align=left;verticalAlign=top;spacingLeft=4;spacingRight=4;overflow=hidden;rotatable=0;points=[[0,0.5],[1,0.5]];portConstraint=eastwest;" parent="448L8v_ShYavht3nEeR1-20" vertex="1"><mxGeometry y="60" width="226" height="60" as="geometry"/></mxCell><mxCell id="448L8v_ShYavht3nEeR1-24" value="Stängning" style="swimlane;fontStyle=1;align=center;verticalAlign=top;childLayout=stackLayout;horizontal=1;startSize=26;horizontalStack=0;resizeParent=1;resizeParentMax=0;resizeLast=0;collapsible=1;marginBottom=0;" parent="WIyWlLk6GJQsqaUBKTNV-1" vertex="1"><mxGeometry x="550" y="660" width="166" height="110" as="geometry"/></mxCell><mxCell id="448L8v_ShYavht3nEeR1-26" value="" style="line;strokeWidth=1;fillColor=none;align=left;verticalAlign=middle;spacingTop=-1;spacingLeft=3;spacingRight=3;rotatable=0;labelPosition=right;points=[];portConstraint=eastwest;strokeColor=inherit;" parent="448L8v_ShYavht3nEeR1-24" vertex="1"><mxGeometry y="26" width="166" height="8" as="geometry"/></mxCell><mxCell id="448L8v_ShYavht3nEeR1-27" value="+ Stängning(int time)&#10;+ execute(ButikState) : Void" style="text;strokeColor=none;fillColor=none;align=left;verticalAlign=top;spacingLeft=4;spacingRight=4;overflow=hidden;rotatable=0;points=[[0,0.5],[1,0.5]];portConstraint=eastwest;" parent="448L8v_ShYavht3nEeR1-24" vertex="1"><mxGeometry y="34" width="166" height="76" as="geometry"/></mxCell><mxCell id="448L8v_ShYavht3nEeR1-29" value="" style="endArrow=block;endSize=16;endFill=0;html=1;rounded=0;entryX=0.743;entryY=1.015;entryDx=0;entryDy=0;entryPerimeter=0;edgeStyle=orthogonalEdgeStyle;" parent="WIyWlLk6GJQsqaUBKTNV-1" target="Uis7Gt27PWJQKcqrfa5W-12" edge="1"><mxGeometry width="160" relative="1" as="geometry"><mxPoint x="490" y="520" as="sourcePoint"/><mxPoint x="620" y="460" as="targetPoint"/><Array as="points"><mxPoint x="490" y="520"/></Array></mxGeometry></mxCell><mxCell id="448L8v_ShYavht3nEeR1-30" value="" style="endArrow=none;html=1;rounded=0;exitX=1;exitY=0.5;exitDx=0;exitDy=0;" parent="WIyWlLk6GJQsqaUBKTNV-1" source="Uis7Gt27PWJQKcqrfa5W-23" edge="1"><mxGeometry width="50" height="50" relative="1" as="geometry"><mxPoint x="150" y="390" as="sourcePoint"/><mxPoint x="490" y="357" as="targetPoint"/></mxGeometry></mxCell><mxCell id="448L8v_ShYavht3nEeR1-31" value="" style="endArrow=none;html=1;rounded=0;exitX=1;exitY=0.5;exitDx=0;exitDy=0;" parent="WIyWlLk6GJQsqaUBKTNV-1" source="Uis7Gt27PWJQKcqrfa5W-27" edge="1"><mxGeometry width="50" height="50" relative="1" as="geometry"><mxPoint x="430" y="490" as="sourcePoint"/><mxPoint x="490" y="416" as="targetPoint"/></mxGeometry></mxCell><mxCell id="448L8v_ShYavht3nEeR1-33" value="" style="endArrow=block;endSize=16;endFill=0;html=1;rounded=0;edgeStyle=elbowEdgeStyle;elbow=vertical;" parent="WIyWlLk6GJQsqaUBKTNV-1" source="448L8v_ShYavht3nEeR1-10" target="448L8v_ShYavht3nEeR1-5" edge="1"><mxGeometry width="160" relative="1" as="geometry"><mxPoint x="250" y="520" as="sourcePoint"/><mxPoint x="410" y="520" as="targetPoint"/><Array as="points"><mxPoint x="310" y="640"/></Array></mxGeometry></mxCell><mxCell id="F9oT5EeiKZbabNWgcuaX-0" value="" style="endArrow=none;html=1;rounded=0;exitX=0.5;exitY=0;exitDx=0;exitDy=0;" parent="WIyWlLk6GJQsqaUBKTNV-1" source="448L8v_ShYavht3nEeR1-16" edge="1"><mxGeometry width="50" height="50" relative="1" as="geometry"><mxPoint x="560" y="610" as="sourcePoint"/><mxPoint x="159" y="640" as="targetPoint"/></mxGeometry></mxCell><mxCell id="F9oT5EeiKZbabNWgcuaX-1" value="" style="endArrow=diamondThin;endFill=1;endSize=24;html=1;rounded=0;entryX=1;entryY=0.5;entryDx=0;entryDy=0;exitX=0.5;exitY=0;exitDx=0;exitDy=0;" parent="WIyWlLk6GJQsqaUBKTNV-1" source="YLRPy9Vwm_R-fYZFnZfL-18" target="Uis7Gt27PWJQKcqrfa5W-83" edge="1"><mxGeometry width="160" relative="1" as="geometry"><mxPoint x="760" y="610" as="sourcePoint"/><mxPoint x="920" y="610" as="targetPoint"/><Array as="points"><mxPoint x="1027" y="660"/><mxPoint x="920" y="660"/><mxPoint x="920" y="604"/></Array></mxGeometry></mxCell><mxCell id="F9oT5EeiKZbabNWgcuaX-2" value="" style="endArrow=none;html=1;rounded=0;exitX=0.5;exitY=0;exitDx=0;exitDy=0;" parent="WIyWlLk6GJQsqaUBKTNV-1" source="Uis7Gt27PWJQKcqrfa5W-85" edge="1"><mxGeometry width="50" height="50" relative="1" as="geometry"><mxPoint x="820" y="630" as="sourcePoint"/><mxPoint x="920" y="660" as="targetPoint"/><Array as="points"><mxPoint x="817" y="660"/></Array></mxGeometry></mxCell><mxCell id="F9oT5EeiKZbabNWgcuaX-3" value="" style="endArrow=none;dashed=1;html=1;rounded=0;exitX=1;exitY=0.25;exitDx=0;exitDy=0;" parent="WIyWlLk6GJQsqaUBKTNV-1" source="YLRPy9Vwm_R-fYZFnZfL-46" edge="1"><mxGeometry width="50" height="50" relative="1" as="geometry"><mxPoint x="610" y="180" as="sourcePoint"/><mxPoint x="300" y="60" as="targetPoint"/><Array as="points"><mxPoint x="300" y="178"/></Array></mxGeometry></mxCell><mxCell id="F9oT5EeiKZbabNWgcuaX-4" value="Use" style="endArrow=open;endSize=12;dashed=1;html=1;rounded=0;entryX=0.25;entryY=0;entryDx=0;entryDy=0;textOpacity=0;" parent="WIyWlLk6GJQsqaUBKTNV-1" target="Uis7Gt27PWJQKcqrfa5W-9" edge="1"><mxGeometry width="160" relative="1" as="geometry"><mxPoint x="375" y="60" as="sourcePoint"/><mxPoint x="710" y="160" as="targetPoint"/></mxGeometry></mxCell><mxCell id="F9oT5EeiKZbabNWgcuaX-5" value="Use" style="endArrow=open;endSize=12;dashed=1;html=1;rounded=0;entryX=0.75;entryY=0;entryDx=0;entryDy=0;textOpacity=0;edgeStyle=elbowEdgeStyle;" parent="WIyWlLk6GJQsqaUBKTNV-1" target="Uis7Gt27PWJQKcqrfa5W-55" edge="1"><mxGeometry x="-0.0034" width="160" relative="1" as="geometry"><mxPoint x="870" y="60" as="sourcePoint"/><mxPoint x="710" y="160" as="targetPoint"/><mxPoint as="offset"/><Array as="points"><mxPoint x="880" y="160"/></Array></mxGeometry></mxCell><mxCell id="F9oT5EeiKZbabNWgcuaX-6" value="Use" style="endArrow=open;endSize=12;dashed=1;html=1;rounded=0;entryX=0.5;entryY=0;entryDx=0;entryDy=0;textOpacity=0;" parent="WIyWlLk6GJQsqaUBKTNV-1" target="Uis7Gt27PWJQKcqrfa5W-67" edge="1"><mxGeometry x="-0.0006" width="160" relative="1" as="geometry"><mxPoint x="690" y="60" as="sourcePoint"/><mxPoint x="840" y="160" as="targetPoint"/><Array as="points"><mxPoint x="1027" y="60"/></Array><mxPoint as="offset"/></mxGeometry></mxCell><mxCell id="F9oT5EeiKZbabNWgcuaX-7" value="" style="endArrow=none;html=1;rounded=0;exitX=0.5;exitY=0;exitDx=0;exitDy=0;" parent="WIyWlLk6GJQsqaUBKTNV-1" source="448L8v_ShYavht3nEeR1-20" edge="1"><mxGeometry width="50" height="50" relative="1" as="geometry"><mxPoint x="490" y="650" as="sourcePoint"/><mxPoint x="423" y="640" as="targetPoint"/></mxGeometry></mxCell><mxCell id="F9oT5EeiKZbabNWgcuaX-8" value="" style="endArrow=none;html=1;rounded=0;exitX=0.5;exitY=0;exitDx=0;exitDy=0;" parent="WIyWlLk6GJQsqaUBKTNV-1" source="448L8v_ShYavht3nEeR1-24" edge="1"><mxGeometry width="50" height="50" relative="1" as="geometry"><mxPoint x="490" y="650" as="sourcePoint"/><mxPoint x="480" y="640" as="targetPoint"/><Array as="points"><mxPoint x="633" y="640"/></Array></mxGeometry></mxCell><mxCell id="F9oT5EeiKZbabNWgcuaX-10" value="Extends" style="endArrow=block;endSize=16;endFill=0;html=1;rounded=0;entryX=0.5;entryY=1;entryDx=0;entryDy=0;entryPerimeter=0;exitX=0.5;exitY=0;exitDx=0;exitDy=0;textOpacity=0;" parent="WIyWlLk6GJQsqaUBKTNV-1" source="Uis7Gt27PWJQKcqrfa5W-80" target="Uis7Gt27PWJQKcqrfa5W-58" edge="1"><mxGeometry width="160" relative="1" as="geometry"><mxPoint x="690" y="460" as="sourcePoint"/><mxPoint x="850" y="460" as="targetPoint"/><Array as="points"><mxPoint x="780" y="440"/><mxPoint x="830" y="440"/></Array></mxGeometry></mxCell><mxCell id="0" value="" style="endArrow=open;endSize=12;dashed=1;html=1;rounded=0;" edge="1" parent="WIyWlLk6GJQsqaUBKTNV-1" source="Uis7Gt27PWJQKcqrfa5W-5" target="Uis7Gt27PWJQKcqrfa5W-55"><mxGeometry width="160" relative="1" as="geometry"><mxPoint x="700" y="360" as="sourcePoint"/><mxPoint x="860" y="360" as="targetPoint"/></mxGeometry></mxCell></root></mxGraphModel></diagram></mxfile>